{"glyphs":{"0":{"ha":557,"x_min":0,"x_max":0,"o":"m 28 0 l 28 1115 l 529 1115 l 529 0 m 307 947 l 250 947 l 250 168 l 307 168 "},"1":{"ha":324,"x_min":0,"x_max":0,"o":"m 72 0 l 72 842 l 28 822 l 28 1004 l 296 1115 l 296 0 "},"2":{"ha":557,"x_min":0,"x_max":0,"o":"m 28 0 l 28 543 l 307 683 l 307 947 l 250 947 l 250 717 l 28 606 l 28 1115 l 529 1115 l 529 607 l 250 468 l 250 168 l 307 168 l 307 433 l 529 544 l 529 0 "},"3":{"ha":557,"x_min":0,"x_max":0,"o":"m 28 0 l 28 308 l 250 419 l 250 168 l 307 168 l 307 594 l 250 567 l 250 753 l 307 781 l 307 947 l 250 947 l 250 815 l 28 704 l 28 1115 l 529 1115 l 529 706 l 440 661 l 529 617 l 529 0 "},"4":{"ha":557,"x_min":0,"x_max":0,"o":"m 307 0 l 307 467 l 28 606 l 28 1115 l 250 1115 l 250 681 l 307 653 l 307 1115 l 529 1115 l 529 0 "},"5":{"ha":557,"x_min":0,"x_max":0,"o":"m 28 0 l 28 544 l 250 433 l 250 168 l 307 168 l 307 468 l 28 607 l 28 1115 l 529 1115 l 529 947 l 250 947 l 250 683 l 529 543 l 529 0 "},"6":{"ha":557,"x_min":0,"x_max":0,"o":"m 28 0 l 28 1115 l 529 1115 l 529 606 l 307 717 l 307 947 l 250 947 l 250 683 l 529 543 l 529 0 m 307 468 l 250 496 l 250 168 l 307 168 "},"7":{"ha":557,"x_min":0,"x_max":0,"o":"m 167 0 l 167 613 l 307 683 l 307 947 l 250 947 l 250 717 l 28 606 l 28 1115 l 529 1115 l 529 607 l 390 538 l 390 0 "},"8":{"ha":557,"x_min":0,"x_max":0,"o":"m 28 0 l 28 617 l 118 661 l 28 706 l 28 1115 l 529 1115 l 529 706 l 440 661 l 529 617 l 529 0 m 307 781 l 307 947 l 250 947 l 250 753 m 307 594 l 250 567 l 250 168 l 307 168 "},"9":{"ha":557,"x_min":0,"x_max":0,"o":"m 529 1115 l 529 0 l 28 0 l 28 510 l 250 399 l 250 168 l 307 168 l 307 433 l 28 572 l 28 1115 m 250 647 l 307 619 l 307 947 l 250 947 "},"\u0000":{"ha":614,"x_min":0,"x_max":0,"o":"m 28 0 l 28 972 l 586 972 l 586 0 m 553 939 l 61 939 l 61 33 l 553 33 m 263 308 b 239 408 246 351 239 385 b 293 556 239 443 257 492 b 349 703 331 621 349 669 b 265 786 349 754 318 786 b 181 749 232 786 210 774 l 181 779 b 296 828 221 815 257 828 b 433 710 376 828 433 785 b 360 554 433 664 414 624 b 292 465 331 518 308 489 b 268 399 276 442 268 419 b 283 308 268 381 274 351 m 276 144 b 263 151 271 144 267 147 l 221 200 b 217 211 218 203 217 207 b 224 226 217 217 218 221 l 263 265 b 276 272 267 271 272 272 b 290 265 281 272 285 269 l 329 225 b 335 211 333 219 335 215 b 328 196 335 206 332 201 l 290 154 b 276 144 283 147 279 144 "},"\u001d":{"ha":614,"x_min":0,"x_max":0,"o":"m 586 0 l 586 972 l 28 972 l 28 0 m 553 33 l 61 33 l 61 939 l 553 939 m 283 308 b 268 399 274 351 268 381 b 292 465 268 419 276 442 b 360 554 308 489 331 518 b 433 710 414 624 433 664 b 296 828 433 785 376 828 b 181 779 257 828 221 815 l 181 749 b 265 786 210 774 232 786 b 349 703 318 786 349 754 b 293 556 349 669 331 621 b 239 408 257 492 239 443 b 263 308 239 385 246 351 m 276 144 b 290 154 279 144 283 147 l 328 196 b 335 211 332 201 335 206 b 329 225 335 215 333 219 l 290 265 b 276 272 285 269 281 272 b 263 265 272 272 267 271 l 224 226 b 217 211 218 221 217 217 b 221 200 217 207 218 203 l 263 151 b 276 144 267 147 271 144 "}," ":{"ha":424,"x_min":0,"x_max":0,"o":""}," ":{"ha":424,"x_min":0,"x_max":0,"o":""},"!":{"ha":278,"x_min":0,"x_max":0,"o":"m 28 0 l 28 113 l 250 113 l 250 0 m 28 168 l 28 1115 l 250 1115 l 250 168 "},"\"":{"ha":335,"x_min":0,"x_max":0,"o":"m 28 892 l 28 1115 l 139 1115 l 139 892 m 194 892 l 194 1115 l 307 1115 l 307 892 "},"#":{"ha":868,"x_min":0,"x_max":0,"o":"m 315 0 l 418 390 l 361 390 l 258 0 l 28 0 l 131 390 l 72 390 l 103 501 l 160 501 l 189 614 l 132 614 l 161 725 l 218 725 l 321 1115 l 551 1115 l 449 725 l 507 725 l 610 1115 l 840 1115 l 738 725 l 794 725 l 765 614 l 708 614 l 678 501 l 736 501 l 707 390 l 649 390 l 546 0 m 478 614 l 419 614 l 390 501 l 447 501 "},"$":{"ha":557,"x_min":0,"x_max":0,"o":"m 167 -56 l 167 0 l 28 0 l 28 544 l 250 433 l 250 168 l 307 168 l 307 468 l 28 607 l 28 1115 l 167 1115 l 167 1171 l 390 1171 l 390 1115 l 529 1115 l 529 606 l 307 717 l 307 947 l 250 947 l 250 683 l 529 543 l 529 0 l 390 0 l 390 -56 "},"%":{"ha":1429,"x_min":0,"x_max":0,"o":"m 453 0 l 746 1115 l 976 1115 l 683 0 m 900 279 l 900 669 l 1401 669 l 1401 279 m 1179 501 l 1124 501 l 1124 446 l 1179 446 m 28 446 l 28 836 l 529 836 l 529 446 m 307 669 l 250 669 l 250 614 l 307 614 "},"&":{"ha":557,"x_min":0,"x_max":0,"o":"m 28 0 l 28 617 l 118 661 l 28 706 l 28 1115 l 529 1115 l 529 954 l 307 843 l 307 947 l 250 947 l 250 753 l 529 893 l 529 0 m 307 594 l 250 567 l 250 168 l 307 168 "},"'":{"ha":167,"x_min":0,"x_max":0,"o":"m 28 892 l 28 1115 l 139 1115 l 139 892 "},"(":{"ha":340,"x_min":0,"x_max":0,"o":"m 93 0 b 28 558 50 183 28 371 b 93 1115 28 744 50 932 l 313 1115 b 251 558 272 932 251 744 b 313 0 251 371 272 183 "},")":{"ha":340,"x_min":0,"x_max":0,"o":"m 28 0 b 90 558 69 183 90 371 b 28 1115 90 744 69 932 l 247 1115 b 313 558 292 932 313 744 b 247 0 313 371 292 183 "},"*":{"ha":344,"x_min":0,"x_max":0,"o":"m 131 818 l 131 896 l 58 867 l 28 944 l 83 967 l 28 989 l 58 1067 l 131 1038 l 131 1115 l 214 1115 l 214 1038 l 285 1067 l 317 989 l 261 967 l 317 944 l 285 867 l 214 896 l 214 818 "},"+":{"ha":446,"x_min":0,"x_max":0,"o":"m 139 363 l 139 474 l 28 474 l 28 642 l 139 642 l 139 753 l 307 753 l 307 642 l 418 642 l 418 474 l 307 474 l 307 363 "},",":{"ha":278,"x_min":0,"x_max":0,"o":"m 86 -97 l 129 0 l 28 0 l 28 224 l 250 224 l 250 0 l 208 -97 "},"-":{"ha":446,"x_min":0,"x_max":0,"o":"m 28 474 l 28 642 l 418 642 l 418 474 "},"­":{"ha":446,"x_min":0,"x_max":0,"o":"m 418 474 l 418 642 l 28 642 l 28 474 "},".":{"ha":278,"x_min":0,"x_max":0,"o":"m 28 0 l 28 224 l 250 224 l 250 0 "},"/":{"ha":579,"x_min":0,"x_max":0,"o":"m 321 1115 l 551 1115 l 258 0 l 28 0 "},":":{"ha":278,"x_min":0,"x_max":0,"o":"m 28 586 l 28 808 l 250 808 l 250 586 m 28 307 l 28 531 l 250 531 l 250 307 "},";":{"ha":278,"x_min":0,"x_max":0,"o":"m 28 586 l 28 808 l 250 808 l 250 586 m 86 210 l 129 307 l 28 307 l 28 531 l 250 531 l 250 307 l 208 210 "},"<":{"ha":319,"x_min":0,"x_max":0,"o":"m 111 363 l 28 558 l 111 753 l 292 753 l 210 558 l 292 363 "},"=":{"ha":446,"x_min":0,"x_max":0,"o":"m 28 363 l 28 531 l 418 531 l 418 363 m 28 586 l 28 753 l 418 753 l 418 586 "},">":{"ha":319,"x_min":0,"x_max":0,"o":"m 28 363 l 111 558 l 28 753 l 210 753 l 292 558 l 210 363 "},"?":{"ha":557,"x_min":0,"x_max":0,"o":"m 167 279 l 167 613 l 307 683 l 307 947 l 250 947 l 250 717 l 28 606 l 28 1115 l 529 1115 l 529 607 l 390 538 l 390 279 m 167 0 l 167 224 l 390 224 l 390 0 "},"@":{"ha":892,"x_min":0,"x_max":0,"o":"m 28 -167 l 28 1282 l 864 1282 l 864 0 l 194 0 l 194 676 l 474 815 l 474 947 l 418 947 l 418 850 l 194 739 l 194 1115 l 696 1115 l 696 113 l 753 113 l 753 1171 l 139 1171 l 139 -56 l 696 -56 l 585 -167 m 474 629 l 418 600 l 418 168 l 474 168 "},"A":{"ha":557,"x_min":0,"x_max":0,"o":"m 307 0 l 307 501 l 250 558 l 250 0 l 28 0 l 28 1115 l 529 1115 l 529 0 m 307 947 l 250 947 l 250 794 l 307 739 "},"B":{"ha":557,"x_min":0,"x_max":0,"o":"m 28 0 l 28 1115 l 529 1115 l 529 781 l 425 676 l 529 571 l 529 0 m 307 558 l 250 501 l 250 168 l 307 168 m 307 794 l 307 947 l 250 947 l 250 739 "},"C":{"ha":557,"x_min":0,"x_max":0,"o":"m 28 0 l 28 1115 l 529 1115 l 529 739 l 307 850 l 307 947 l 250 947 l 250 168 l 307 168 l 307 788 l 529 676 l 529 0 "},"D":{"ha":557,"x_min":0,"x_max":0,"o":"m 28 0 l 28 1115 l 529 1115 l 529 210 l 319 0 m 307 224 l 307 947 l 250 947 l 250 168 "},"E":{"ha":556,"x_min":0,"x_max":0,"o":"m 250 946 l 250 661 l 333 744 l 333 508 l 250 425 l 250 167 l 306 167 l 306 308 l 528 419 l 528 0 l 28 0 l 28 1114 l 528 1114 l 417 946 "},"F":{"ha":556,"x_min":0,"x_max":0,"o":"m 28 0 l 28 1114 l 528 1114 l 528 713 l 306 824 l 306 946 l 250 946 l 250 661 l 333 744 l 333 508 l 250 425 l 250 0 "},"G":{"ha":557,"x_min":0,"x_max":0,"o":"m 28 0 l 28 1115 l 529 1115 l 529 739 l 307 850 l 307 947 l 250 947 l 250 168 l 307 168 l 307 600 l 279 615 l 279 801 l 529 676 l 529 0 "},"H":{"ha":557,"x_min":0,"x_max":0,"o":"m 28 1115 l 250 1115 l 250 739 l 307 794 l 307 1115 l 529 1115 l 529 0 l 307 0 l 307 558 l 250 501 l 250 0 l 28 0 "},"I":{"ha":278,"x_min":0,"x_max":0,"o":"m 28 0 l 28 1115 l 250 1115 l 250 0 "},"J":{"ha":557,"x_min":0,"x_max":0,"o":"m 28 0 l 28 735 l 250 622 l 250 168 l 307 168 l 307 947 l 139 947 l 139 1115 l 529 1115 l 529 0 "},"K":{"ha":557,"x_min":0,"x_max":0,"o":"m 307 0 l 307 558 l 250 501 l 250 0 l 28 0 l 28 1115 l 250 1115 l 250 739 l 307 794 l 307 1115 l 529 1115 l 529 781 l 425 676 l 529 571 l 529 0 "},"L":{"ha":557,"x_min":0,"x_max":0,"o":"m 28 1115 l 250 1115 l 250 168 l 307 168 l 307 308 l 529 419 l 529 0 l 28 0 l 28 1115 "},"M":{"ha":836,"x_min":0,"x_max":0,"o":"m 585 0 l 585 908 l 529 881 l 529 0 l 307 0 l 307 881 l 250 908 l 250 0 l 28 0 l 28 1115 l 213 1115 l 418 1013 l 624 1115 l 808 1115 l 808 0 "},"N":{"ha":557,"x_min":0,"x_max":0,"o":"m 307 0 l 307 881 l 250 908 l 250 0 l 28 0 l 28 1115 l 213 1115 l 307 1068 l 307 1115 l 529 1115 l 529 0 "},"O":{"ha":557,"x_min":0,"x_max":0,"o":"m 28 0 l 28 1115 l 529 1115 l 529 0 m 307 947 l 250 947 l 250 168 l 307 168 "},"P":{"ha":557,"x_min":0,"x_max":0,"o":"m 28 0 l 28 1115 l 529 1115 l 529 781 l 250 501 l 250 0 m 307 794 l 307 947 l 250 947 l 250 739 "},"Q":{"ha":557,"x_min":0,"x_max":0,"o":"m 529 0 l 390 0 l 446 -56 l 222 -56 l 167 0 l 28 0 l 28 1114 l 529 1114 m 306 947 l 250 947 l 250 167 l 306 167 "},"R":{"ha":557,"x_min":0,"x_max":0,"o":"m 307 0 l 307 558 l 250 501 l 250 0 l 28 0 l 28 1115 l 529 1115 l 529 781 l 425 676 l 529 571 l 529 0 m 307 794 l 307 947 l 250 947 l 250 739 "},"S":{"ha":557,"x_min":0,"x_max":0,"o":"m 28 0 l 28 544 l 250 433 l 250 168 l 307 168 l 307 468 l 28 607 l 28 1115 l 529 1115 l 529 606 l 307 717 l 307 947 l 250 947 l 250 683 l 529 543 l 529 0 "},"T":{"ha":611,"x_min":0,"x_max":0,"o":"m 583 1114 l 583 604 l 582 604 l 472 946 l 417 946 l 417 0 l 194 0 l 194 946 l 139 946 l 29 604 l 28 1114 "},"U":{"ha":557,"x_min":0,"x_max":0,"o":"m 28 0 l 28 1115 l 250 1115 l 250 168 l 307 168 l 307 1115 l 529 1115 l 529 0 "},"V":{"ha":557,"x_min":0,"x_max":0,"o":"m 238 0 l 28 210 l 28 1115 l 250 1115 l 250 224 l 279 196 l 307 224 l 307 1115 l 529 1115 l 529 210 l 319 0 "},"W":{"ha":836,"x_min":0,"x_max":0,"o":"m 624 0 l 418 103 l 213 0 l 28 0 l 28 1115 l 250 1115 l 250 207 l 307 235 l 307 1115 l 529 1115 l 529 235 l 585 207 l 585 1115 l 808 1115 l 808 0 "},"X":{"ha":557,"x_min":0,"x_max":0,"o":"m 307 0 l 307 488 l 279 515 l 250 488 l 250 0 l 28 0 l 28 501 l 154 626 l 28 753 l 28 1115 l 250 1115 l 250 767 l 279 739 l 307 767 l 307 1115 l 529 1115 l 529 753 l 404 626 l 529 501 l 529 0 "},"Y":{"ha":557,"x_min":0,"x_max":0,"o":"m 28 0 l 28 701 l 250 479 l 250 168 l 307 168 l 307 501 l 28 781 l 28 1115 l 250 1115 l 250 794 l 307 739 l 307 1115 l 529 1115 l 529 0 "},"Z":{"ha":613,"x_min":0,"x_max":0,"o":"m 28 0 l 28 168 l 346 947 l 250 947 l 250 850 l 28 739 l 28 1115 l 585 1115 l 585 947 l 281 168 l 363 168 l 363 308 l 585 419 l 585 0 "},"[":{"ha":335,"x_min":0,"x_max":0,"o":"m 28 0 l 28 1115 l 307 1115 l 307 1060 l 250 1060 l 250 56 l 307 56 l 307 0 "},"\\":{"ha":579,"x_min":0,"x_max":0,"o":"m 321 0 l 28 1115 l 258 1115 l 551 0 "},"]":{"ha":335,"x_min":0,"x_max":0,"o":"m 28 0 l 28 56 l 83 56 l 83 1060 l 28 1060 l 28 1115 l 307 1115 l 307 0 "},"^":{"ha":651,"x_min":0,"x_max":0,"o":"m 417 856 l 325 1004 l 233 856 l 28 856 l 214 1115 l 438 1115 l 624 856 "},"_":{"ha":446,"x_min":0,"x_max":0,"o":"m 28 -167 l 28 -56 l 418 -56 l 418 -167 "},"`":{"ha":335,"x_min":0,"x_max":0,"o":"m 154 1169 l 28 1306 l 235 1306 l 307 1169 "},"a":{"ha":557,"x_min":0,"x_max":0,"o":"m 307 0 l 307 501 l 250 558 l 250 0 l 28 0 l 28 1115 l 529 1115 l 529 0 m 307 947 l 250 947 l 250 794 l 307 739 "},"b":{"ha":557,"x_min":0,"x_max":0,"o":"m 28 0 l 28 1115 l 529 1115 l 529 781 l 425 676 l 529 571 l 529 0 m 307 558 l 250 501 l 250 168 l 307 168 m 307 794 l 307 947 l 250 947 l 250 739 "},"c":{"ha":557,"x_min":0,"x_max":0,"o":"m 28 0 l 28 1115 l 529 1115 l 529 739 l 307 850 l 307 947 l 250 947 l 250 168 l 307 168 l 307 788 l 529 676 l 529 0 "},"d":{"ha":557,"x_min":0,"x_max":0,"o":"m 28 0 l 28 1115 l 529 1115 l 529 210 l 319 0 m 307 224 l 307 947 l 250 947 l 250 168 "},"e":{"ha":556,"x_min":0,"x_max":0,"o":"m 250 946 l 250 661 l 333 744 l 333 508 l 250 425 l 250 167 l 306 167 l 306 308 l 528 419 l 528 0 l 28 0 l 28 1114 l 528 1114 l 417 946 "},"f":{"ha":556,"x_min":0,"x_max":0,"o":"m 28 0 l 28 1114 l 528 1114 l 528 713 l 306 824 l 306 946 l 250 946 l 250 661 l 333 744 l 333 508 l 250 425 l 250 0 "},"g":{"ha":557,"x_min":0,"x_max":0,"o":"m 28 0 l 28 1115 l 529 1115 l 529 739 l 307 850 l 307 947 l 250 947 l 250 168 l 307 168 l 307 600 l 279 615 l 279 801 l 529 676 l 529 0 "},"h":{"ha":557,"x_min":0,"x_max":0,"o":"m 28 1115 l 250 1115 l 250 739 l 307 794 l 307 1115 l 529 1115 l 529 0 l 307 0 l 307 558 l 250 501 l 250 0 l 28 0 "},"i":{"ha":278,"x_min":0,"x_max":0,"o":"m 28 0 l 28 1115 l 250 1115 l 250 0 "},"j":{"ha":557,"x_min":0,"x_max":0,"o":"m 28 0 l 28 735 l 250 622 l 250 168 l 307 168 l 307 947 l 139 947 l 139 1115 l 529 1115 l 529 0 "},"k":{"ha":557,"x_min":0,"x_max":0,"o":"m 307 0 l 307 558 l 250 501 l 250 0 l 28 0 l 28 1115 l 250 1115 l 250 739 l 307 794 l 307 1115 l 529 1115 l 529 781 l 425 676 l 529 571 l 529 0 "},"l":{"ha":557,"x_min":0,"x_max":0,"o":"m 28 1115 l 250 1115 l 250 168 l 307 168 l 307 308 l 529 419 l 529 0 l 28 0 l 28 1115 "},"m":{"ha":836,"x_min":0,"x_max":0,"o":"m 585 0 l 585 908 l 529 881 l 529 0 l 307 0 l 307 881 l 250 908 l 250 0 l 28 0 l 28 1115 l 213 1115 l 418 1013 l 624 1115 l 808 1115 l 808 0 "},"n":{"ha":557,"x_min":0,"x_max":0,"o":"m 307 0 l 307 881 l 250 908 l 250 0 l 28 0 l 28 1115 l 213 1115 l 307 1068 l 307 1115 l 529 1115 l 529 0 "},"o":{"ha":557,"x_min":0,"x_max":0,"o":"m 28 0 l 28 1115 l 529 1115 l 529 0 m 307 947 l 250 947 l 250 168 l 307 168 "},"p":{"ha":557,"x_min":0,"x_max":0,"o":"m 28 0 l 28 1115 l 529 1115 l 529 781 l 250 501 l 250 0 m 307 794 l 307 947 l 250 947 l 250 739 "},"q":{"ha":557,"x_min":0,"x_max":0,"o":"m 529 0 l 390 0 l 446 -56 l 222 -56 l 167 0 l 28 0 l 28 1114 l 529 1114 m 306 947 l 250 947 l 250 167 l 306 167 "},"r":{"ha":557,"x_min":0,"x_max":0,"o":"m 307 0 l 307 558 l 250 501 l 250 0 l 28 0 l 28 1115 l 529 1115 l 529 781 l 425 676 l 529 571 l 529 0 m 307 794 l 307 947 l 250 947 l 250 739 "},"s":{"ha":557,"x_min":0,"x_max":0,"o":"m 28 0 l 28 544 l 250 433 l 250 168 l 307 168 l 307 468 l 28 607 l 28 1115 l 529 1115 l 529 606 l 307 717 l 307 947 l 250 947 l 250 683 l 529 543 l 529 0 "},"t":{"ha":611,"x_min":0,"x_max":0,"o":"m 583 1114 l 583 604 l 582 604 l 472 946 l 417 946 l 417 0 l 194 0 l 194 946 l 139 946 l 29 604 l 28 1114 "},"u":{"ha":557,"x_min":0,"x_max":0,"o":"m 28 0 l 28 1115 l 250 1115 l 250 168 l 307 168 l 307 1115 l 529 1115 l 529 0 "},"v":{"ha":557,"x_min":0,"x_max":0,"o":"m 238 0 l 28 210 l 28 1115 l 250 1115 l 250 224 l 279 196 l 307 224 l 307 1115 l 529 1115 l 529 210 l 319 0 "},"w":{"ha":836,"x_min":0,"x_max":0,"o":"m 624 0 l 418 103 l 213 0 l 28 0 l 28 1115 l 250 1115 l 250 207 l 307 235 l 307 1115 l 529 1115 l 529 235 l 585 207 l 585 1115 l 808 1115 l 808 0 "},"x":{"ha":557,"x_min":0,"x_max":0,"o":"m 307 0 l 307 488 l 279 515 l 250 488 l 250 0 l 28 0 l 28 501 l 154 626 l 28 753 l 28 1115 l 250 1115 l 250 767 l 279 739 l 307 767 l 307 1115 l 529 1115 l 529 753 l 404 626 l 529 501 l 529 0 "},"y":{"ha":557,"x_min":0,"x_max":0,"o":"m 28 0 l 28 701 l 250 479 l 250 168 l 307 168 l 307 501 l 28 781 l 28 1115 l 250 1115 l 250 794 l 307 739 l 307 1115 l 529 1115 l 529 0 "},"z":{"ha":613,"x_min":0,"x_max":0,"o":"m 28 0 l 28 168 l 346 947 l 250 947 l 250 850 l 28 739 l 28 1115 l 585 1115 l 585 947 l 281 168 l 363 168 l 363 308 l 585 419 l 585 0 "},"{":{"ha":278,"x_min":0,"x_max":0,"o":"m 31 1 l 75 503 l 28 503 l 28 614 l 75 614 l 31 1115 l 250 1115 l 250 1060 l 194 1060 l 250 558 l 194 57 l 250 57 l 250 1 "},"|":{"ha":222,"x_min":0,"x_max":0,"o":"m 28 1 l 28 1115 l 194 1115 l 194 1 "},"}":{"ha":278,"x_min":0,"x_max":0,"o":"m 28 1 l 28 57 l 83 57 l 28 558 l 83 1060 l 28 1060 l 28 1115 l 247 1115 l 203 614 l 250 614 l 250 503 l 203 503 l 247 1 "},"~":{"ha":783,"x_min":0,"x_max":0,"o":"m 533 418 l 250 518 l 250 418 l 28 418 l 28 635 l 83 690 l 250 690 l 533 590 l 533 690 l 756 690 l 756 475 l 700 418 "},"¡":{"ha":278,"x_min":0,"x_max":0,"o":"m 250 625 l 250 514 l 28 514 l 28 625 m 250 458 l 250 -489 l 28 -489 l 28 458 "},"¢":{"ha":557,"x_min":0,"x_max":0,"o":"m 167 -56 l 167 1 l 28 1 l 28 1115 l 167 1115 l 167 1171 l 390 1171 l 390 1115 l 529 1115 l 529 739 l 307 850 l 307 949 l 250 949 l 250 168 l 307 168 l 307 788 l 529 676 l 529 1 l 390 1 l 390 -56 "},"£":{"ha":585,"x_min":0,"x_max":0,"o":"m 28 1 l 58 531 l 28 531 l 28 586 l 58 586 l 28 1115 l 557 1115 l 557 739 l 335 850 l 335 949 l 261 949 l 282 586 l 307 586 l 307 531 l 282 531 l 261 168 l 335 168 l 335 788 l 557 676 l 557 1 "},"¥":{"ha":557,"x_min":0,"x_max":0,"o":"m 167 1 l 167 475 l 28 475 l 28 531 l 167 531 l 167 586 l 28 586 l 28 642 l 139 642 l 28 753 l 28 1115 l 250 1115 l 250 767 l 279 739 l 307 767 l 307 1115 l 529 1115 l 529 753 l 418 642 l 529 642 l 529 586 l 390 586 l 390 531 l 529 531 l 529 475 l 390 475 l 390 1 "},"§":{"ha":836,"x_min":0,"x_max":0,"o":"m 28 -61 l 28 483 l 250 372 l 250 106 l 307 106 l 307 407 l 28 546 l 28 1053 l 307 1053 l 307 1178 l 808 1178 l 808 668 l 585 779 l 585 1010 l 529 1010 l 529 744 l 808 606 l 808 63 l 529 63 l 529 -61 m 585 538 l 307 676 l 307 886 l 250 886 l 250 642 l 529 503 l 529 231 l 585 231 "},"¨":{"ha":418,"x_min":0,"x_max":0,"o":"m 28 1169 l 28 1281 l 181 1281 l 181 1169 m 238 1168 l 238 1279 l 390 1279 l 390 1168 "},"©":{"ha":668,"x_min":0,"x_max":0,"o":"m 149 558 l 28 679 l 28 994 l 149 1115 l 519 1115 l 640 994 l 640 679 l 519 558 m 585 703 l 585 971 l 497 1060 l 172 1060 l 83 971 l 83 703 l 172 614 l 497 614 m 194 669 l 139 725 l 139 949 l 194 1004 l 474 1004 l 529 949 l 529 864 l 363 864 l 363 893 l 307 893 l 307 781 l 363 781 l 363 808 l 529 808 l 529 725 l 474 669 "},"ª":{"ha":501,"x_min":0,"x_max":0,"o":"m 279 669 l 279 836 l 222 836 l 222 669 l 28 669 l 28 1115 l 474 1115 l 474 669 m 279 1004 l 222 1004 l 222 892 l 279 892 "},"«":{"ha":557,"x_min":0,"x_max":0,"o":"m 111 363 l 28 558 l 111 753 l 292 753 l 210 558 l 292 363 m 349 363 l 265 558 l 349 753 l 529 753 l 447 558 l 529 363 "},"®":{"ha":668,"x_min":0,"x_max":0,"o":"m 149 558 l 28 679 l 28 994 l 149 1115 l 519 1115 l 640 994 l 640 679 l 519 558 m 585 703 l 585 971 l 497 1060 l 172 1060 l 83 971 l 83 703 l 172 614 l 497 614 m 363 669 l 307 725 l 307 669 l 139 669 l 139 1004 l 474 1004 l 529 947 l 529 864 l 474 808 l 529 753 l 529 669 m 363 893 l 307 893 l 307 836 l 363 836 "},"¯":{"ha":446,"x_min":0,"x_max":0,"o":"m 28 1168 l 28 1279 l 418 1279 l 418 1168 "},"°":{"ha":501,"x_min":0,"x_max":0,"o":"m 28 499 l 28 1115 l 474 1115 l 474 499 m 279 1004 l 222 1004 l 222 610 l 279 610 "},"±":{"ha":446,"x_min":0,"x_max":0,"o":"m 139 489 l 139 572 l 56 572 l 56 739 l 139 739 l 139 822 l 307 822 l 307 739 l 390 739 l 390 572 l 307 572 l 307 489 m 28 293 l 28 461 l 418 461 l 418 293 "},"²":{"ha":501,"x_min":0,"x_max":0,"o":"m 28 669 l 28 949 l 279 949 l 279 1004 l 28 1004 l 28 1115 l 474 1115 l 474 836 l 222 836 l 222 781 l 474 781 l 474 669 "},"³":{"ha":501,"x_min":0,"x_max":0,"o":"m 28 669 l 28 836 l 222 836 l 222 781 l 279 781 l 279 864 l 222 864 l 222 921 l 279 921 l 279 1004 l 222 1004 l 222 949 l 28 949 l 28 1115 l 474 1115 l 474 921 l 446 892 l 474 864 l 474 669 "},"´":{"ha":333,"x_min":0,"x_max":0,"o":"m 28 1169 l 100 1306 l 306 1306 l 181 1169 "},"·":{"ha":278,"x_min":0,"x_max":0,"o":"m 28 474 l 28 696 l 250 696 l 250 474 "},"∙":{"ha":278,"x_min":0,"x_max":0,"o":"m 250 474 l 250 696 l 28 696 l 28 474 "},"¹":{"ha":250,"x_min":0,"x_max":0,"o":"m 28 669 l 28 1115 l 222 1115 l 222 669 "},"º":{"ha":501,"x_min":0,"x_max":0,"o":"m 28 669 l 28 1115 l 474 1115 l 474 669 m 279 1004 l 222 1004 l 222 781 l 279 781 "},"»":{"ha":557,"x_min":0,"x_max":0,"o":"m 265 363 l 349 558 l 265 753 l 447 753 l 529 558 l 447 363 m 28 363 l 111 558 l 28 753 l 210 753 l 292 558 l 210 363 "},"¿":{"ha":557,"x_min":0,"x_max":0,"o":"m 390 346 l 390 13 l 250 -57 l 250 -322 l 307 -322 l 307 -92 l 529 19 l 529 -489 l 28 -489 l 28 18 l 167 88 l 167 346 m 390 625 l 390 403 l 167 403 l 167 625 "},"À":{"ha":557,"x_min":0,"x_max":0,"o":"m 307 0 l 307 501 l 250 558 l 250 0 l 28 0 l 28 1115 l 529 1115 l 529 0 m 307 947 l 250 947 l 250 794 l 307 739 m 218 1169 l 93 1304 l 299 1304 l 371 1169 "},"Á":{"ha":557,"x_min":0,"x_max":0,"o":"m 307 0 l 307 501 l 250 558 l 250 0 l 28 0 l 28 1115 l 529 1115 l 529 0 m 307 947 l 250 947 l 250 794 l 307 739 m 188 1168 l 260 1303 l 465 1303 l 340 1168 "},"Â":{"ha":557,"x_min":0,"x_max":0,"o":"m 307 0 l 307 501 l 250 558 l 250 0 l 28 0 l 28 1115 l 529 1115 l 529 0 m 307 947 l 250 947 l 250 794 l 307 739 m 308 1168 l 279 1200 l 250 1168 l 97 1168 l 169 1303 l 389 1303 l 461 1168 "},"Ã":{"ha":557,"x_min":0,"x_max":0,"o":"m 307 0 l 307 501 l 250 558 l 250 0 l 28 0 l 28 1115 l 529 1115 l 529 0 m 307 947 l 250 947 l 250 794 l 307 739 m 163 1347 b 215 1360 179 1356 199 1360 b 329 1288 263 1360 308 1333 b 343 1279 332 1282 338 1279 b 349 1281 344 1279 347 1279 b 354 1288 351 1282 353 1285 l 354 1358 l 468 1358 l 468 1293 b 396 1181 468 1244 440 1201 b 342 1168 379 1172 360 1168 b 229 1240 296 1168 250 1194 b 217 1247 226 1244 222 1247 b 210 1246 214 1247 213 1247 b 204 1240 207 1244 206 1243 l 204 1168 l 90 1168 l 90 1233 b 163 1347 90 1282 119 1326 "},"Ä":{"ha":557,"x_min":0,"x_max":0,"o":"m 307 0 l 307 501 l 250 558 l 250 0 l 28 0 l 28 1115 l 529 1115 l 529 0 m 307 947 l 250 947 l 250 794 l 307 739 m 97 1169 l 97 1281 l 250 1281 l 250 1169 m 306 1168 l 306 1279 l 460 1279 l 460 1168 "},"Å":{"ha":557,"x_min":0,"x_max":0,"o":"m 307 0 l 307 501 l 250 558 l 250 0 l 28 0 l 28 1115 l 529 1115 l 529 0 m 307 947 l 250 947 l 250 794 l 307 739 m 279 1415 b 403 1292 347 1415 403 1360 b 279 1168 403 1224 347 1168 b 156 1292 211 1168 156 1224 b 279 1415 156 1360 211 1415 m 279 1251 b 319 1292 301 1251 319 1269 b 279 1332 319 1314 301 1332 b 239 1292 257 1332 239 1314 b 279 1251 239 1269 257 1251 "},"Æ":{"ha":836,"x_min":0,"x_max":0,"o":"m 307 0 l 307 501 l 250 557 l 250 0 l 28 0 l 28 1114 l 808 1114 l 696 947 l 529 947 l 529 704 l 613 746 l 613 558 l 529 517 l 529 167 l 585 167 l 585 308 l 808 419 l 808 0 m 307 947 l 250 947 l 250 793 l 307 738 "},"Ç":{"ha":557,"x_min":0,"x_max":0,"o":"m 307 849 l 307 947 l 250 947 l 250 167 l 307 167 l 307 786 l 529 675 l 529 0 l 335 0 l 335 -29 l 418 -29 l 418 -251 l 139 -251 l 139 -193 l 250 -137 l 250 -168 l 307 -168 l 307 -112 l 222 -112 l 222 0 l 28 0 l 28 1114 l 529 1114 l 529 738 "},"È":{"ha":556,"x_min":0,"x_max":0,"o":"m 250 946 l 250 661 l 333 744 l 333 508 l 250 425 l 250 167 l 306 167 l 306 308 l 528 419 l 528 0 l 28 0 l 28 1114 l 528 1114 l 417 946 m 218 1168 l 93 1303 l 299 1303 l 371 1168 "},"É":{"ha":556,"x_min":0,"x_max":0,"o":"m 250 946 l 250 661 l 333 744 l 333 508 l 250 425 l 250 167 l 306 167 l 306 308 l 528 419 l 528 0 l 28 0 l 28 1114 l 528 1114 l 417 946 m 188 1168 l 260 1303 l 465 1303 l 340 1168 "},"Ê":{"ha":556,"x_min":0,"x_max":0,"o":"m 250 946 l 250 661 l 333 744 l 333 508 l 250 425 l 250 167 l 306 167 l 306 308 l 528 419 l 528 0 l 28 0 l 28 1114 l 528 1114 l 417 946 m 308 1168 l 279 1200 l 250 1168 l 97 1168 l 169 1303 l 389 1303 l 461 1168 "},"Ë":{"ha":556,"x_min":0,"x_max":0,"o":"m 250 946 l 250 661 l 333 744 l 333 508 l 250 425 l 250 167 l 306 167 l 306 308 l 528 419 l 528 0 l 28 0 l 28 1114 l 528 1114 l 417 946 m 97 1169 l 97 1281 l 250 1281 l 250 1169 m 306 1168 l 306 1279 l 460 1279 l 460 1168 "},"Ì":{"ha":278,"x_min":0,"x_max":0,"o":"m 28 0 l 28 1115 l 250 1115 l 250 0 m 78 1168 l -47 1303 l 158 1303 l 231 1168 "},"Í":{"ha":278,"x_min":0,"x_max":0,"o":"m 28 0 l 28 1115 l 250 1115 l 250 0 m 47 1168 l 119 1303 l 325 1303 l 200 1168 "},"Î":{"ha":278,"x_min":0,"x_max":0,"o":"m 28 0 l 28 1115 l 250 1115 l 250 0 m 168 1168 l 139 1200 l 110 1168 l -43 1168 l 29 1303 l 249 1303 l 321 1168 "},"Ï":{"ha":278,"x_min":0,"x_max":0,"o":"m 28 0 l 28 1115 l 250 1115 l 250 0 m -43 1169 l -43 1281 l 110 1281 l 110 1169 m 165 1168 l 165 1279 l 319 1279 l 319 1168 "},"Ð":{"ha":585,"x_min":0,"x_max":0,"o":"m 56 1 l 56 531 l 28 531 l 28 586 l 56 586 l 56 1115 l 557 1115 l 557 210 l 347 1 m 335 224 l 335 949 l 279 949 l 279 586 l 307 586 l 307 531 l 279 531 l 279 168 "},"Ñ":{"ha":557,"x_min":0,"x_max":0,"o":"m 307 0 l 307 881 l 250 908 l 250 0 l 28 0 l 28 1115 l 213 1115 l 307 1068 l 307 1115 l 529 1115 l 529 0 m 163 1347 b 215 1360 179 1356 199 1360 b 329 1288 263 1360 308 1333 b 343 1279 332 1282 338 1279 b 349 1281 344 1279 347 1279 b 354 1288 351 1282 353 1285 l 354 1358 l 468 1358 l 468 1293 b 396 1181 468 1244 440 1201 b 342 1168 379 1172 360 1168 b 229 1240 296 1168 250 1194 b 217 1247 226 1244 222 1247 b 210 1246 214 1247 213 1247 b 204 1240 207 1244 206 1243 l 204 1168 l 90 1168 l 90 1233 b 163 1347 90 1282 119 1326 "},"Ò":{"ha":557,"x_min":0,"x_max":0,"o":"m 28 0 l 28 1115 l 529 1115 l 529 0 m 307 947 l 250 947 l 250 168 l 307 168 m 218 1168 l 93 1303 l 299 1303 l 371 1168 "},"Ó":{"ha":557,"x_min":0,"x_max":0,"o":"m 28 0 l 28 1115 l 529 1115 l 529 0 m 307 947 l 250 947 l 250 168 l 307 168 m 188 1168 l 260 1303 l 465 1303 l 340 1168 "},"Ô":{"ha":557,"x_min":0,"x_max":0,"o":"m 28 0 l 28 1115 l 529 1115 l 529 0 m 307 947 l 250 947 l 250 168 l 307 168 m 308 1168 l 279 1200 l 250 1168 l 97 1168 l 169 1303 l 389 1303 l 461 1168 "},"Õ":{"ha":557,"x_min":0,"x_max":0,"o":"m 28 0 l 28 1115 l 529 1115 l 529 0 m 307 947 l 250 947 l 250 168 l 307 168 m 163 1347 b 215 1360 179 1356 199 1360 b 329 1288 263 1360 308 1333 b 343 1279 332 1282 338 1279 b 349 1281 344 1279 347 1279 b 354 1288 351 1282 353 1285 l 354 1358 l 468 1358 l 468 1293 b 396 1181 468 1244 440 1201 b 342 1168 379 1172 360 1168 b 229 1240 296 1168 250 1194 b 217 1247 226 1244 222 1247 b 210 1246 214 1247 213 1247 b 204 1240 207 1244 206 1243 l 204 1168 l 90 1168 l 90 1233 b 163 1347 90 1282 119 1326 "},"Ö":{"ha":557,"x_min":0,"x_max":0,"o":"m 28 0 l 28 1115 l 529 1115 l 529 0 m 307 947 l 250 947 l 250 168 l 307 168 m 97 1169 l 97 1281 l 250 1281 l 250 1169 m 306 1168 l 306 1279 l 460 1279 l 460 1168 "},"×":{"ha":450,"x_min":0,"x_max":0,"o":"m 225 440 l 146 361 l 28 479 l 107 558 l 28 638 l 146 756 l 225 676 l 304 756 l 422 638 l 343 558 l 422 479 l 304 361 "},"Ø":{"ha":729,"x_min":0,"x_max":0,"o":"m 150 -57 l 28 -57 l 114 135 l 114 1114 l 554 1114 l 579 1169 l 701 1169 l 615 978 l 615 -1 l 175 -1 m 338 631 l 393 754 l 393 946 l 338 946 m 338 165 l 393 165 l 393 482 l 338 358 "},"Ù":{"ha":557,"x_min":0,"x_max":0,"o":"m 28 0 l 28 1115 l 250 1115 l 250 168 l 307 168 l 307 1115 l 529 1115 l 529 0 m 218 1168 l 93 1303 l 299 1303 l 371 1168 "},"Ú":{"ha":557,"x_min":0,"x_max":0,"o":"m 28 0 l 28 1115 l 250 1115 l 250 168 l 307 168 l 307 1115 l 529 1115 l 529 0 m 188 1168 l 260 1303 l 465 1303 l 340 1168 "},"Û":{"ha":557,"x_min":0,"x_max":0,"o":"m 28 0 l 28 1115 l 250 1115 l 250 168 l 307 168 l 307 1115 l 529 1115 l 529 0 m 308 1168 l 279 1200 l 250 1168 l 97 1168 l 169 1303 l 389 1303 l 461 1168 "},"Ü":{"ha":557,"x_min":0,"x_max":0,"o":"m 28 0 l 28 1115 l 250 1115 l 250 168 l 307 168 l 307 1115 l 529 1115 l 529 0 m 97 1169 l 97 1281 l 250 1281 l 250 1169 m 306 1168 l 306 1279 l 460 1279 l 460 1168 "},"Ý":{"ha":557,"x_min":0,"x_max":0,"o":"m 28 0 l 28 701 l 250 479 l 250 168 l 307 168 l 307 501 l 28 781 l 28 1115 l 250 1115 l 250 794 l 307 739 l 307 1115 l 529 1115 l 529 0 m 188 1168 l 260 1303 l 465 1303 l 340 1168 "},"Þ":{"ha":557,"x_min":0,"x_max":0,"o":"m 28 1 l 28 1115 l 250 1115 l 250 949 l 529 949 l 529 168 l 250 168 l 250 1 m 307 782 l 250 782 l 250 336 l 307 336 "},"ß":{"ha":557,"x_min":0,"x_max":0,"o":"m 279 1 l 279 168 l 307 168 l 307 558 l 279 531 l 279 767 l 307 794 l 307 949 l 250 949 l 250 1 l 28 1 l 28 1115 l 529 1115 l 529 782 l 425 676 l 529 572 l 529 1 "},"à":{"ha":557,"x_min":0,"x_max":0,"o":"m 307 0 l 307 501 l 250 558 l 250 0 l 28 0 l 28 1115 l 529 1115 l 529 0 m 307 947 l 250 947 l 250 794 l 307 739 m 218 1168 l 93 1303 l 299 1303 l 371 1168 "},"á":{"ha":557,"x_min":0,"x_max":0,"o":"m 307 0 l 307 501 l 250 558 l 250 0 l 28 0 l 28 1115 l 529 1115 l 529 0 m 307 947 l 250 947 l 250 794 l 307 739 m 188 1168 l 260 1303 l 465 1303 l 340 1168 "},"â":{"ha":557,"x_min":0,"x_max":0,"o":"m 307 0 l 307 501 l 250 558 l 250 0 l 28 0 l 28 1115 l 529 1115 l 529 0 m 307 947 l 250 947 l 250 794 l 307 739 m 308 1168 l 279 1200 l 250 1168 l 97 1168 l 169 1303 l 389 1303 l 461 1168 "},"ã":{"ha":557,"x_min":0,"x_max":0,"o":"m 307 0 l 307 501 l 250 558 l 250 0 l 28 0 l 28 1115 l 529 1115 l 529 0 m 307 947 l 250 947 l 250 794 l 307 739 m 163 1347 b 215 1360 179 1356 199 1360 b 329 1288 263 1360 308 1333 b 343 1279 332 1282 338 1279 b 349 1281 344 1279 347 1279 b 354 1288 351 1282 353 1285 l 354 1358 l 468 1358 l 468 1293 b 396 1181 468 1244 440 1201 b 342 1168 379 1172 360 1168 b 229 1240 296 1168 250 1194 b 217 1247 226 1244 222 1247 b 210 1246 214 1247 213 1247 b 204 1240 207 1244 206 1243 l 204 1168 l 90 1168 l 90 1233 b 163 1347 90 1282 119 1326 "},"ä":{"ha":557,"x_min":0,"x_max":0,"o":"m 307 0 l 307 501 l 250 558 l 250 0 l 28 0 l 28 1115 l 529 1115 l 529 0 m 307 947 l 250 947 l 250 794 l 307 739 m 97 1169 l 97 1281 l 250 1281 l 250 1169 m 306 1168 l 306 1279 l 460 1279 l 460 1168 "},"å":{"ha":557,"x_min":0,"x_max":0,"o":"m 307 0 l 307 501 l 250 558 l 250 0 l 28 0 l 28 1115 l 529 1115 l 529 0 m 307 947 l 250 947 l 250 794 l 307 739 m 279 1415 b 403 1292 347 1415 403 1360 b 279 1168 403 1224 347 1168 b 156 1292 211 1168 156 1224 b 279 1415 156 1360 211 1415 m 279 1251 b 319 1292 301 1251 319 1269 b 279 1332 319 1314 301 1332 b 239 1292 257 1332 239 1314 b 279 1251 239 1269 257 1251 "},"æ":{"ha":836,"x_min":0,"x_max":0,"o":"m 250 0 l 28 0 l 28 1114 l 808 1114 l 696 947 l 529 947 l 529 703 l 613 744 l 613 558 l 529 515 l 529 167 l 696 167 l 808 0 l 307 0 l 307 501 l 250 557 m 250 793 l 307 738 l 307 947 l 250 947 "},"ç":{"ha":557,"x_min":0,"x_max":0,"o":"m 307 849 l 307 947 l 250 947 l 250 167 l 307 167 l 307 786 l 529 675 l 529 0 l 335 0 l 335 -29 l 418 -29 l 418 -251 l 139 -251 l 139 -193 l 250 -137 l 250 -168 l 307 -168 l 307 -112 l 222 -112 l 222 0 l 28 0 l 28 1114 l 529 1114 l 529 738 "},"è":{"ha":556,"x_min":0,"x_max":0,"o":"m 250 946 l 250 661 l 333 744 l 333 508 l 250 425 l 250 167 l 306 167 l 306 308 l 528 419 l 528 0 l 28 0 l 28 1114 l 528 1114 l 417 946 m 214 1168 l 89 1303 l 294 1303 l 367 1168 "},"é":{"ha":556,"x_min":0,"x_max":0,"o":"m 250 946 l 250 661 l 333 744 l 333 508 l 250 425 l 250 167 l 306 167 l 306 308 l 528 419 l 528 0 l 28 0 l 28 1114 l 528 1114 l 417 946 m 183 1168 l 256 1303 l 461 1303 l 336 1168 "},"ê":{"ha":556,"x_min":0,"x_max":0,"o":"m 250 946 l 250 661 l 333 744 l 333 508 l 250 425 l 250 167 l 306 167 l 306 308 l 528 419 l 528 0 l 28 0 l 28 1114 l 528 1114 l 417 946 m 304 1168 l 275 1200 l 246 1168 l 93 1168 l 165 1303 l 385 1303 l 457 1168 "},"ë":{"ha":556,"x_min":0,"x_max":0,"o":"m 250 946 l 250 661 l 333 744 l 333 508 l 250 425 l 250 167 l 306 167 l 306 308 l 528 419 l 528 0 l 28 0 l 28 1114 l 528 1114 l 417 946 m 93 1169 l 93 1281 l 246 1281 l 246 1169 m 301 1168 l 301 1279 l 456 1279 l 456 1168 "},"ì":{"ha":278,"x_min":0,"x_max":0,"o":"m 28 0 l 28 1115 l 250 1115 l 250 0 m 78 1168 l -47 1303 l 158 1303 l 231 1168 "},"í":{"ha":278,"x_min":0,"x_max":0,"o":"m 28 0 l 28 1115 l 250 1115 l 250 0 m 47 1168 l 119 1303 l 325 1303 l 200 1168 "},"î":{"ha":278,"x_min":0,"x_max":0,"o":"m 28 0 l 28 1115 l 250 1115 l 250 0 m 168 1168 l 139 1200 l 110 1168 l -43 1168 l 29 1303 l 249 1303 l 321 1168 "},"ï":{"ha":278,"x_min":0,"x_max":0,"o":"m 28 0 l 28 1115 l 250 1115 l 250 0 m -43 1169 l -43 1281 l 110 1281 l 110 1169 m 165 1168 l 165 1279 l 319 1279 l 319 1168 "},"ñ":{"ha":557,"x_min":0,"x_max":0,"o":"m 307 0 l 307 881 l 250 908 l 250 0 l 28 0 l 28 1115 l 213 1115 l 307 1068 l 307 1115 l 529 1115 l 529 0 m 163 1347 b 215 1360 179 1356 199 1360 b 329 1288 263 1360 308 1333 b 343 1279 332 1282 338 1279 b 349 1281 344 1279 347 1279 b 354 1288 351 1282 353 1285 l 354 1358 l 468 1358 l 468 1293 b 396 1181 468 1244 440 1201 b 342 1168 379 1172 360 1168 b 229 1240 296 1168 250 1194 b 217 1247 226 1244 222 1247 b 210 1246 214 1247 213 1247 b 204 1240 207 1244 206 1243 l 204 1168 l 90 1168 l 90 1233 b 163 1347 90 1282 119 1326 "},"ò":{"ha":557,"x_min":0,"x_max":0,"o":"m 28 0 l 28 1115 l 529 1115 l 529 0 m 307 947 l 250 947 l 250 168 l 307 168 m 218 1168 l 93 1303 l 299 1303 l 371 1168 "},"ó":{"ha":557,"x_min":0,"x_max":0,"o":"m 28 0 l 28 1115 l 529 1115 l 529 0 m 307 947 l 250 947 l 250 168 l 307 168 m 188 1168 l 260 1303 l 465 1303 l 340 1168 "},"ô":{"ha":557,"x_min":0,"x_max":0,"o":"m 28 0 l 28 1115 l 529 1115 l 529 0 m 307 947 l 250 947 l 250 168 l 307 168 m 308 1168 l 279 1200 l 250 1168 l 97 1168 l 169 1303 l 389 1303 l 461 1168 "},"õ":{"ha":557,"x_min":0,"x_max":0,"o":"m 28 0 l 28 1115 l 529 1115 l 529 0 m 307 947 l 250 947 l 250 168 l 307 168 m 163 1347 b 215 1360 179 1356 199 1360 b 329 1288 263 1360 308 1333 b 343 1279 332 1282 338 1279 b 349 1281 344 1279 347 1279 b 354 1288 351 1282 353 1285 l 354 1358 l 468 1358 l 468 1293 b 396 1181 468 1244 440 1201 b 342 1168 379 1172 360 1168 b 229 1240 296 1168 250 1194 b 217 1247 226 1244 222 1247 b 210 1246 214 1247 213 1247 b 204 1240 207 1244 206 1243 l 204 1168 l 90 1168 l 90 1233 b 163 1347 90 1282 119 1326 "},"ö":{"ha":557,"x_min":0,"x_max":0,"o":"m 28 0 l 28 1115 l 529 1115 l 529 0 m 307 947 l 250 947 l 250 168 l 307 168 m 97 1169 l 97 1281 l 250 1281 l 250 1169 m 306 1168 l 306 1279 l 460 1279 l 460 1168 "},"÷":{"ha":446,"x_min":0,"x_max":0,"o":"m 28 475 l 28 642 l 418 642 l 418 475 m 139 697 l 139 808 l 307 808 l 307 697 m 139 307 l 139 418 l 307 418 l 307 307 "},"ø":{"ha":729,"x_min":0,"x_max":0,"o":"m 150 -57 l 28 -57 l 114 135 l 114 1114 l 554 1114 l 579 1169 l 701 1169 l 615 978 l 615 -1 l 175 -1 m 338 631 l 393 754 l 393 946 l 338 946 m 338 165 l 393 165 l 393 482 l 338 358 "},"ù":{"ha":557,"x_min":0,"x_max":0,"o":"m 28 0 l 28 1115 l 250 1115 l 250 168 l 307 168 l 307 1115 l 529 1115 l 529 0 m 218 1168 l 93 1303 l 299 1303 l 371 1168 "},"ú":{"ha":557,"x_min":0,"x_max":0,"o":"m 28 0 l 28 1115 l 250 1115 l 250 168 l 307 168 l 307 1115 l 529 1115 l 529 0 m 188 1168 l 260 1303 l 465 1303 l 340 1168 "},"û":{"ha":557,"x_min":0,"x_max":0,"o":"m 28 0 l 28 1115 l 250 1115 l 250 168 l 307 168 l 307 1115 l 529 1115 l 529 0 m 308 1168 l 279 1200 l 250 1168 l 97 1168 l 169 1303 l 389 1303 l 461 1168 "},"ü":{"ha":557,"x_min":0,"x_max":0,"o":"m 28 0 l 28 1115 l 250 1115 l 250 168 l 307 168 l 307 1115 l 529 1115 l 529 0 m 97 1169 l 97 1281 l 250 1281 l 250 1169 m 306 1168 l 306 1279 l 460 1279 l 460 1168 "},"ý":{"ha":557,"x_min":0,"x_max":0,"o":"m 28 0 l 28 701 l 250 479 l 250 168 l 307 168 l 307 501 l 28 781 l 28 1115 l 250 1115 l 250 794 l 307 739 l 307 1115 l 529 1115 l 529 0 m 199 1168 l 271 1303 l 476 1303 l 351 1168 "},"þ":{"ha":557,"x_min":0,"x_max":0,"o":"m 28 1 l 28 1115 l 250 1115 l 250 949 l 529 949 l 529 168 l 250 168 l 250 1 m 307 782 l 250 782 l 250 336 l 307 336 "},"ÿ":{"ha":557,"x_min":0,"x_max":0,"o":"m 28 0 l 28 701 l 250 479 l 250 168 l 307 168 l 307 501 l 28 781 l 28 1115 l 250 1115 l 250 794 l 307 739 l 307 1115 l 529 1115 l 529 0 m 96 1169 l 96 1281 l 249 1281 l 249 1169 m 304 1168 l 304 1279 l 458 1279 l 458 1168 "},"ı":{"ha":278,"x_min":0,"x_max":0,"o":"m 28 0 l 28 1115 l 250 1115 l 250 0 "},"̀":{"ha":335,"x_min":0,"x_max":0,"o":"m 154 1169 l 28 1306 l 235 1306 l 307 1169 "},"́":{"ha":333,"x_min":0,"x_max":0,"o":"m 28 1169 l 100 1306 l 306 1306 l 181 1169 "},"̂":{"ha":419,"x_min":0,"x_max":0,"o":"m 239 1168 l 210 1200 l 181 1168 l 28 1168 l 100 1303 l 319 1303 l 392 1168 "},"̃":{"ha":433,"x_min":0,"x_max":0,"o":"m 100 1347 b 153 1360 117 1356 135 1360 b 267 1288 200 1360 246 1333 b 281 1279 269 1282 275 1279 b 286 1281 282 1279 285 1279 b 292 1288 289 1282 290 1285 l 292 1358 l 406 1358 l 406 1293 b 333 1181 406 1244 378 1201 b 279 1168 315 1172 297 1168 b 167 1240 232 1168 188 1194 b 154 1247 164 1244 158 1247 b 147 1246 151 1247 149 1247 b 142 1240 144 1244 143 1243 l 142 1168 l 28 1168 l 28 1233 b 100 1347 28 1282 57 1326 "},"̄":{"ha":418,"x_min":0,"x_max":0,"o":"m 28 1168 l 28 1293 l 390 1293 l 390 1168 "},"̇":{"ha":208,"x_min":0,"x_max":0,"o":"m 28 1169 l 28 1281 l 181 1281 l 181 1169 "},"̈":{"ha":418,"x_min":0,"x_max":0,"o":"m 28 1169 l 28 1281 l 181 1281 l 181 1169 m 238 1168 l 238 1279 l 390 1279 l 390 1168 "},"̊":{"ha":301,"x_min":0,"x_max":0,"o":"m 151 1415 b 274 1292 219 1415 274 1360 b 151 1168 274 1224 219 1168 b 28 1292 82 1168 28 1224 b 151 1415 28 1360 82 1415 m 151 1251 b 190 1292 172 1251 190 1269 b 151 1332 190 1314 172 1332 b 111 1292 129 1332 111 1314 b 151 1251 111 1269 129 1251 "},"̌":{"ha":419,"x_min":0,"x_max":0,"o":"m 319 1168 l 100 1168 l 28 1303 l 181 1303 l 210 1272 l 239 1303 l 392 1303 "},"–":{"ha":557,"x_min":0,"x_max":0,"o":"m 28 474 l 28 642 l 529 642 l 529 474 "},"—":{"ha":882,"x_min":0,"x_max":0,"o":"m 28 474 l 28 642 l 854 642 l 854 474 "},"‘":{"ha":278,"x_min":0,"x_max":0,"o":"m 193 1115 l 150 1018 l 250 1018 l 250 794 l 28 794 l 28 1018 l 71 1115 "},"’":{"ha":278,"x_min":0,"x_max":0,"o":"m 86 794 l 129 892 l 28 892 l 28 1115 l 250 1115 l 250 892 l 208 794 "},"‚":{"ha":278,"x_min":0,"x_max":0,"o":"m 86 -97 l 129 0 l 28 0 l 28 224 l 250 224 l 250 0 l 208 -97 "},"“":{"ha":564,"x_min":0,"x_max":0,"o":"m 479 1114 l 436 1017 l 536 1017 l 536 794 l 314 794 l 314 1017 l 357 1114 m 193 1114 l 150 1017 l 250 1017 l 250 794 l 28 794 l 28 1017 l 71 1114 "},"”":{"ha":564,"x_min":0,"x_max":0,"o":"m 86 794 l 129 892 l 28 892 l 28 1114 l 250 1114 l 250 892 l 208 794 m 372 794 l 415 892 l 314 892 l 314 1114 l 536 1114 l 536 892 l 494 794 "},"„":{"ha":564,"x_min":0,"x_max":0,"o":"m 86 -97 l 129 0 l 28 0 l 28 224 l 250 224 l 250 0 l 208 -97 m 372 -97 l 415 0 l 314 0 l 314 224 l 536 224 l 536 0 l 494 -97 "},"†":{"ha":613,"x_min":0,"x_max":0,"o":"m 194 1 l 194 782 l 28 782 l 28 949 l 194 949 l 194 1115 l 418 1115 l 418 949 l 585 949 l 585 782 l 418 782 l 418 1 "},"•":{"ha":474,"x_min":0,"x_max":0,"o":"m 28 474 l 28 864 l 446 864 l 446 474 "},"…":{"ha":817,"x_min":0,"x_max":0,"o":"m 300 0 l 300 224 l 522 224 l 522 0 m 567 0 l 567 224 l 789 224 l 789 0 m 28 0 l 28 224 l 250 224 l 250 0 "},"‹":{"ha":319,"x_min":0,"x_max":0,"o":"m 111 363 l 28 558 l 111 753 l 292 753 l 210 558 l 292 363 "},"›":{"ha":319,"x_min":0,"x_max":0,"o":"m 28 363 l 111 558 l 28 753 l 210 753 l 292 558 l 210 363 "},"⁄":{"ha":579,"x_min":0,"x_max":0,"o":"m 321 1115 l 551 1115 l 258 0 l 28 0 "},"∕":{"ha":579,"x_min":0,"x_max":0,"o":"m 28 0 l 258 0 l 551 1115 l 321 1115 "},"₤":{"ha":585,"x_min":0,"x_max":0,"o":"m 28 1 l 56 475 l 28 475 l 28 531 l 56 531 l 56 586 l 28 586 l 28 642 l 56 642 l 28 1115 l 557 1115 l 557 739 l 335 850 l 335 949 l 261 949 l 279 642 l 307 642 l 307 586 l 279 586 l 279 531 l 307 531 l 307 475 l 279 475 l 261 168 l 335 168 l 335 788 l 557 676 l 557 1 "},"€":{"ha":585,"x_min":0,"x_max":0,"o":"m 56 1 l 56 475 l 28 475 l 28 531 l 56 531 l 56 586 l 28 586 l 28 642 l 56 642 l 56 1115 l 557 1115 l 557 739 l 335 850 l 335 949 l 279 949 l 279 642 l 307 642 l 307 586 l 279 586 l 279 531 l 307 531 l 307 475 l 279 475 l 279 168 l 335 168 l 335 788 l 557 676 l 557 1 "},"−":{"ha":446,"x_min":0,"x_max":0,"o":"m 28 474 l 28 642 l 418 642 l 418 474 "},"Œ":{"ha":836,"x_min":0,"x_max":0,"o":"m 28 0 l 28 1114 l 808 1114 l 696 947 l 529 947 l 529 704 l 613 746 l 613 558 l 529 517 l 529 167 l 585 167 l 585 308 l 808 419 l 808 0 m 307 947 l 250 947 l 250 167 l 307 167 "},"œ":{"ha":836,"x_min":0,"x_max":0,"o":"m 28 0 l 28 1114 l 808 1114 l 696 947 l 529 947 l 529 704 l 613 746 l 613 558 l 529 517 l 529 167 l 696 167 l 808 0 m 307 947 l 250 947 l 250 167 l 307 167 "},"Š":{"ha":557,"x_min":0,"x_max":0,"o":"m 28 0 l 28 544 l 250 433 l 250 168 l 307 168 l 307 468 l 28 607 l 28 1115 l 529 1115 l 529 606 l 307 717 l 307 947 l 250 947 l 250 683 l 529 543 l 529 0 m 389 1168 l 169 1168 l 97 1303 l 250 1303 l 279 1272 l 308 1303 l 461 1303 "},"š":{"ha":557,"x_min":0,"x_max":0,"o":"m 28 0 l 28 544 l 250 433 l 250 168 l 307 168 l 307 468 l 28 607 l 28 1115 l 529 1115 l 529 606 l 307 717 l 307 947 l 250 947 l 250 683 l 529 543 l 529 0 m 389 1168 l 169 1168 l 97 1303 l 250 1303 l 279 1272 l 308 1303 l 461 1303 "},"Ÿ":{"ha":557,"x_min":0,"x_max":0,"o":"m 28 0 l 28 701 l 250 479 l 250 168 l 307 168 l 307 501 l 28 781 l 28 1115 l 250 1115 l 250 794 l 307 739 l 307 1115 l 529 1115 l 529 0 m 97 1169 l 97 1281 l 250 1281 l 250 1169 m 306 1168 l 306 1279 l 460 1279 l 460 1168 "},"Ž":{"ha":613,"x_min":0,"x_max":0,"o":"m 28 0 l 28 168 l 346 947 l 250 947 l 250 850 l 28 739 l 28 1115 l 585 1115 l 585 947 l 281 168 l 363 168 l 363 308 l 585 419 l 585 0 m 417 1168 l 197 1168 l 125 1303 l 278 1303 l 307 1272 l 336 1303 l 489 1303 "},"ž":{"ha":613,"x_min":0,"x_max":0,"o":"m 28 0 l 28 168 l 346 947 l 250 947 l 250 850 l 28 739 l 28 1115 l 585 1115 l 585 947 l 281 168 l 363 168 l 363 308 l 585 419 l 585 0 m 417 1168 l 197 1168 l 125 1303 l 278 1303 l 307 1272 l 336 1303 l 489 1303 "},"":{"ha":617,"x_min":0,"x_max":0,"o":"m 589 0 b 28 -199 392 -33 201 -101 b 89 469 68 22 89 246 b 32 1115 89 686 69 901 l 589 1115 l 589 738 l 365 850 l 365 947 l 310 947 l 310 168 l 365 168 l 365 600 l 338 614 l 338 801 l 589 676 "},"":{"ha":894,"x_min":0,"x_max":0,"o":"m 310 -72 b 28 -199 213 -106 118 -149 b 89 469 68 22 89 246 b 32 1115 89 686 69 901 l 272 1115 l 478 1013 l 683 1115 l 867 1115 l 867 0 l 644 0 l 644 908 l 589 881 l 589 0 b 365 -53 514 -12 439 -31 l 365 881 l 310 908 "},"":{"ha":281,"x_min":0,"x_max":0,"o":"m 531 1171 l 251 1171 l 251 0 l 29 -111 l 29 1171 l -250 1171 l -250 1338 l 29 1338 l 29 1393 l 251 1506 l 251 1338 l 531 1338 "}}}
